<?xml version="1.0" encoding="utf-8"?>
<!-- Generator: Adobe Illustrator 27.5.0, SVG Export Plug-In . SVG Version: 6.00 Build 0)  -->
<svg version="1.1" id="Capa_1" xmlns="http://www.w3.org/2000/svg" xmlns:xlink="http://www.w3.org/1999/xlink" x="0px" y="0px"
	 viewBox="0 0 2122 2122" style="enable-background:new 0 0 2122 2122;" xml:space="preserve">
<g>
	<g>
		<path style="fill:#009DAC;" d="M2020.042,861.894l-0.278,0.024l-0.18-0.119l-0.044,0.134c-0.166,1.347-0.356,2.69-0.536,3.939
			l-0.073,0.524c-0.049,0.375-0.102,0.75-0.161,1.128c-0.151,1.001-0.312,2.005-0.477,3.009c-0.209,1.21-0.448,2.456-0.682,3.659
			l-0.166,0.843c-0.249,1.277-0.536,2.765-0.868,4.249c-0.205,0.948-0.434,1.897-0.663,2.85l-0.122,0.506
			c-0.171,0.721-0.351,1.44-0.536,2.161c-0.283,1.123-0.56,2.249-0.868,3.377c-0.277,1.016-0.58,2.036-0.877,3.06l-0.244,0.828
			c-0.107,0.356-0.209,0.711-0.312,1.069c-0.161,0.553-0.321,1.106-0.497,1.664c-0.248,0.804-0.506,1.613-0.77,2.424
			c-0.224,0.697-0.458,1.396-0.692,2.095l-0.214,0.641c-0.244,0.704-0.492,1.413-0.745,2.119l-0.643,1.82
			c-0.283,0.792-0.565,1.586-0.863,2.385l-0.092,0.238c-0.317,0.848-0.658,1.701-0.999,2.553l-0.287,0.723
			c-0.434,1.101-0.863,2.202-1.321,3.311l-0.273,0.657c-0.273,0.655-0.546,1.313-0.828,1.971c-0.297,0.695-0.599,1.391-0.906,2.088
			c-0.716,1.632-1.457,3.227-2.085,4.575l-0.146,0.312c-0.385,0.833-0.77,1.661-1.169,2.497c-0.356,0.74-0.731,1.486-1.101,2.229
			l-0.307,0.609c-0.658,1.325-1.335,2.655-2.022,3.99l-0.468,0.889c-0.322,0.626-0.648,1.255-0.984,1.883
			c-0.409,0.76-0.828,1.527-1.247,2.292c-1.174,2.137-2.173,3.915-3.143,5.593c-0.36,0.619-0.721,1.238-1.087,1.857
			c-0.331,0.563-0.672,1.128-1.018,1.696l-0.351,0.577c-0.945,1.578-1.978,3.259-3.167,5.14c-0.219,0.346-0.433,0.692-0.648,1.038
			c-0.248,0.397-0.497,0.796-0.75,1.193c-0.102,0.156-0.205,0.314-0.302,0.468c-0.277,0.434-0.57,0.867-0.857,1.301l-0.599,0.899
			c-1.184,1.805-2.431,3.659-3.703,5.515l-0.477,0.691c-0.317,0.461-0.629,0.921-0.955,1.382l-0.848,1.206l-0.302,0.426
			c-1.934,2.724-3.693,5.145-5.389,7.406l-0.838,1.109c-0.331,0.44-0.677,0.882-1.018,1.325l-0.638,0.823
			c-1.452,1.898-3.011,3.888-4.765,6.081l-0.619,0.779c-0.331,0.419-0.662,0.838-1.004,1.26c-0.185,0.222-0.365,0.443-0.541,0.665
			l-0.268,0.329c-2.08,2.545-4.287,5.169-6.743,8.017l-0.502,0.587c-0.229,0.265-0.458,0.533-0.692,0.801
			c-0.312,0.363-0.638,0.728-0.96,1.094l-0.56,0.631c-2.25,2.562-4.531,5.103-6.782,7.554c-0.161,0.173-0.316,0.348-0.472,0.521
			c-0.161,0.173-0.317,0.346-0.477,0.521l-0.37,0.404c-0.166,0.176-0.331,0.351-0.502,0.526c-0.166,0.176-0.336,0.353-0.497,0.529
			c-2.373,2.541-4.901,5.184-7.517,7.856c-0.225,0.231-0.444,0.458-0.658,0.687c-0.273,0.282-0.545,0.565-0.828,0.85
			c-0.229,0.234-0.463,0.47-0.701,0.704l-0.502,0.504c-2.962,2.991-5.988,5.971-8.989,8.86l-0.726,0.704
			c-0.243,0.231-0.492,0.465-0.745,0.697c-0.277,0.263-0.56,0.526-0.833,0.789c-2.874,2.726-5.788,5.44-8.662,8.063
			c-0.219,0.198-0.428,0.392-0.638,0.587c-0.268,0.251-0.531,0.497-0.814,0.75l-0.701,0.636c-3.25,2.936-6.729,6.003-10.631,9.376
			c-0.199,0.168-0.385,0.336-0.575,0.502c-0.185,0.166-0.37,0.329-0.56,0.494c-0.239,0.203-0.482,0.407-0.726,0.609
			c-0.273,0.232-0.551,0.461-0.814,0.687c-4.478,3.822-8.209,6.945-11.742,9.834c-3.796,3.096-7.961,6.39-12.741,10.068
			c-0.268,0.205-0.526,0.409-0.789,0.616c-0.282,0.224-0.565,0.446-0.853,0.668c-0.473,0.361-0.964,0.721-1.452,1.079
			c-0.38,0.282-0.765,0.565-1.145,0.848c-3.157,2.385-6.334,4.736-9.442,6.989c-0.424,0.307-0.838,0.616-1.257,0.923
			c-0.59,0.434-1.174,0.87-1.778,1.301c-0.278,0.2-0.565,0.4-0.848,0.597c-0.282,0.2-0.57,0.4-0.853,0.602
			c-4.316,3.067-8.346,5.864-12.326,8.556l-0.346,0.241c-0.215,0.146-0.424,0.295-0.638,0.441l-0.37,0.246
			c-0.2,0.129-0.395,0.258-0.585,0.387c-0.448,0.302-0.906,0.602-1.369,0.901c-0.356,0.232-0.711,0.463-1.062,0.699
			c-3.976,2.641-7.586,4.994-11.04,7.199l-0.473,0.302c-0.716,0.46-1.437,0.921-2.163,1.376c-0.76,0.483-1.53,0.957-2.299,1.435
			l-1.067,0.66c-2.962,1.851-6.012,3.72-9.31,5.715l-1.315,0.794c-0.989,0.602-1.983,1.203-2.987,1.8l-2.119,1.264
			c-3.571,2.102-7.43,4.334-11.81,6.818c-0.351,0.198-0.692,0.395-1.038,0.595c-0.341,0.197-0.682,0.397-1.028,0.592
			c-0.39,0.219-0.785,0.433-1.174,0.651c-0.326,0.178-0.648,0.356-0.974,0.538c-0.731,0.407-1.466,0.811-2.207,1.213
			c-0.511,0.283-1.028,0.563-1.54,0.846c-3.191,1.756-6.592,3.623-9.988,5.437c-0.814,0.434-1.627,0.863-2.446,1.294l-1.393,0.731
			c-1.345,0.707-2.694,1.413-4.054,2.119c-2.645,1.376-5.559,2.87-8.906,4.565c-1.769,0.89-3.537,1.781-5.315,2.668
			c-0.302,0.151-0.604,0.304-0.911,0.458c-0.302,0.154-0.599,0.304-0.906,0.455l-0.482,0.243c-0.2,0.1-0.4,0.203-0.604,0.3
			c-3.659,1.805-7.44,3.605-11.094,5.345c-0.463,0.219-0.916,0.441-1.374,0.663c-0.56,0.268-1.115,0.538-1.681,0.801
			c-0.687,0.327-1.383,0.648-2.08,0.97c-0.507,0.231-1.013,0.465-1.515,0.699c-1.082,0.507-2.173,1.004-3.264,1.501l-1.252,0.575
			c-2.962,1.359-6.022,2.767-9.072,4.127c-1.058,0.472-2.124,0.938-3.192,1.403l-3.483,1.53c-1.038,0.456-2.071,0.914-3.114,1.364
			c-2.743,1.189-5.505,2.36-8.273,3.53c-1.973,0.831-3.946,1.659-5.929,2.48l-1.676,0.704c-0.969,0.405-1.934,0.811-2.914,1.211
			c-0.19,0.078-0.375,0.151-0.565,0.227l-0.41,0.163c-2.894,1.179-5.866,2.358-8.74,3.498c-0.59,0.231-1.174,0.467-1.759,0.704
			c-0.76,0.307-1.52,0.612-2.289,0.913c-1.092,0.429-2.193,0.85-3.299,1.272c-0.677,0.26-1.359,0.521-2.036,0.782
			c-1.32,0.509-2.65,1.013-3.976,1.518l-1.905,0.723c-2.348,0.894-4.697,1.788-7.069,2.665c-1.13,0.419-2.271,0.831-3.411,1.242
			l-2.027,0.733c-0.911,0.334-1.822,0.665-2.729,0.996c-0.604,0.214-1.203,0.433-1.802,0.653c-0.595,0.219-1.194,0.436-1.793,0.653
			c-1.895,0.672-3.795,1.338-5.695,2l-1.696,0.592c-2.178,0.76-4.36,1.515-6.553,2.266l-1.934,0.663
			c-1.437,0.492-2.875,0.984-4.317,1.469c-0.487,0.161-0.969,0.319-1.457,0.478c-0.487,0.159-0.979,0.317-1.461,0.477
			c-1.774,0.59-3.552,1.174-5.335,1.754c-0.658,0.214-1.315,0.431-1.968,0.648c-0.999,0.331-1.998,0.663-3.006,0.986
			c-1.603,0.514-3.216,1.018-4.833,1.523l-2.533,0.792c-1.617,0.507-3.23,1.011-4.852,1.51l-1.243,0.385
			c-1.915,0.594-3.829,1.189-5.754,1.769c-1.214,0.365-2.436,0.723-3.654,1.082l-3.839,1.132c-1.627,0.482-3.26,0.967-4.897,1.442
			c-0.224,0.063-0.448,0.131-0.672,0.197c-0.219,0.066-0.438,0.132-0.663,0.198c-1.442,0.414-2.894,0.821-4.341,1.225l-2.066,0.58
			c-2.344,0.66-4.692,1.313-7.046,1.961c-2.699,0.745-5.408,1.486-8.127,2.212c-0.789,0.212-1.583,0.419-2.377,0.626l-1.535,0.402
			c-0.858,0.227-1.71,0.451-2.568,0.675c-0.819,0.212-1.632,0.429-2.451,0.646c-1.15,0.305-2.299,0.609-3.459,0.906
			c-2.358,0.604-4.736,1.188-7.108,1.773l-4.19,1.036c-0.96,0.236-1.92,0.475-2.88,0.708l-1.768,0.432
			c-1.33,0.326-2.656,0.65-3.991,0.967c-1.208,0.287-2.426,0.565-3.644,0.845c-0.775,0.178-1.554,0.356-2.334,0.536
			c-5.286,1.23-10.163,2.331-14.899,3.367c-2.543,0.555-5.087,1.104-7.64,1.644c-3.352,0.711-6.709,1.41-10.075,2.097
			c-0.945,0.192-1.895,0.38-2.84,0.567l-3.966,0.794c-1.471,0.297-2.938,0.592-4.409,0.877c-4.063,0.789-8.097,1.53-12.57,2.346
			c-0.536,0.098-1.067,0.198-1.598,0.297c-0.658,0.122-1.311,0.244-1.963,0.361c-0.619,0.112-1.238,0.224-1.851,0.338
			c-0.848,0.154-1.696,0.309-2.543,0.458c-1.262,0.222-2.533,0.433-3.8,0.646c-0.78,0.132-1.555,0.261-2.334,0.392
			c-4.073,0.697-8.414,1.435-12.789,2.139l-2.592,0.4c-2.699,0.427-5.398,0.838-8.107,1.247c-3.858,0.585-7.951,1.181-12.151,1.774
			c-1.257,0.18-2.514,0.361-3.776,0.536l-1.695,0.234c-1.447,0.2-2.894,0.4-4.346,0.594c-4.931,0.653-10.232,1.321-16.214,2.034
			l-0.643,0.081c-0.375,0.048-0.755,0.095-1.131,0.139l-1.096,0.134c-0.609,0.076-1.218,0.151-1.827,0.219
			c-1.208,0.141-2.422,0.271-3.63,0.4c-0.872,0.092-1.744,0.185-2.616,0.28c-5.452,0.604-10.304,1.114-14.84,1.562l-0.546,0.053
			c-0.365,0.037-0.726,0.073-1.091,0.107c-1.949,0.19-3.907,0.368-5.866,0.546l-1.885,0.171c-4.492,0.407-9.213,0.806-14.431,1.218
			c-0.468,0.037-0.931,0.078-1.393,0.12c-0.516,0.043-1.028,0.09-1.545,0.129c-1.695,0.129-3.396,0.256-5.091,0.378
			c-7.595,0.551-14.543,0.996-21.232,1.365c-1.135,0.061-2.276,0.112-3.416,0.163c-0.891,0.039-1.783,0.078-2.68,0.124
			c-6.003,0.297-11.308,0.528-16.219,0.709c-2.923,0.105-5.852,0.192-8.78,0.277c-4.516,0.132-9.316,0.241-14.265,0.329
			l-2.144,0.037c-2.134,0.039-4.268,0.078-6.402,0.1c-7.342,0.075-14.08,0.09-20.599,0.044c-1.34-0.01-2.685-0.032-4.034-0.051
			c-0.828-0.015-1.661-0.026-2.49-0.036c-6.095-0.078-11.571-0.183-16.745-0.319c-2.953-0.08-5.9-0.183-8.853-0.282l-0.068-0.003
			c-4.697-0.163-9.466-0.358-14.187-0.577l-2.334-0.105c-1.818-0.08-3.635-0.161-5.452-0.258l-0.068-0.005l-0.117,0.065
			c-291.809,166.444-508.038,135.7-567.356,122.302l-0.682-0.154c-0.901-0.207-1.764-0.407-2.602-0.606
			c-0.205-0.046-0.405-0.095-0.604-0.144l-0.151-0.036c-0.789-0.188-1.554-0.373-2.275-0.55c-0.224-0.056-0.429-0.107-0.658-0.166
			c-1.983-0.499-3.868-0.996-5.598-1.476l-3.581-1.043c-0.117-0.034-0.219-0.066-0.317-0.097
			c7.8-1.562,61.754-12.626,117.038-30.344c1.822-0.587,3.649-1.179,5.471-1.778c11.562-3.793,22.528-7.679,32.599-11.552
			c1.778-0.682,3.552-1.376,5.31-2.073c3.591-1.422,7.094-2.855,10.422-4.261c1.705-0.721,3.406-1.452,5.091-2.188
			c14.217-6.214,26.592-12.558,36.784-18.857c1.705-1.053,3.449-2.181,5.486-3.545c7.381-4.938,13.545-9.91,18.319-14.777
			c3.981-4.061,7.172-8.261,9.491-12.485c0.107-0.199,0.224-0.397,0.336-0.597c0.17-0.297,0.346-0.597,0.497-0.897l0.063-0.036
			v-0.095c0.472-0.943,1.052-1.917,1.768-2.977c0.132-0.193,0.283-0.388,0.434-0.582c0.112-0.144,0.224-0.287,0.326-0.429
			c0.487-0.665,1.023-1.379,1.627-2.087c0.224-0.268,0.477-0.533,0.726-0.802c0.127-0.136,0.253-0.27,0.375-0.407
			c0.526-0.577,1.16-1.259,1.852-1.946c0.429-0.422,0.892-0.846,1.354-1.272c0.799-0.745,1.491-1.362,2.163-1.937
			c0.502-0.429,1.023-0.858,1.55-1.289c0.779-0.634,1.627-1.299,2.519-1.973l0.195-0.149c0.497-0.375,0.989-0.75,1.506-1.126
			c0.989-0.721,2.037-1.447,2.943-2.068l0.477-0.329c0.419-0.288,0.833-0.575,1.267-0.865c1.213-0.806,2.49-1.61,3.576-2.29
			c0.225-0.139,0.439-0.277,0.658-0.417c0.302-0.192,0.604-0.385,0.921-0.577c1.467-0.899,3.094-1.863,4.975-2.948
			c0.117-0.063,0.229-0.129,0.341-0.198l0.268-0.158c3.854-2.195,8.171-4.502,12.828-6.85l1.378-0.682
			c2.139-1.064,3.907-1.932,5.574-2.73c0.361-0.171,0.726-0.341,1.092-0.514l0.76-0.355c1.905-0.904,3.713-1.742,5.52-2.568
			l2.037-0.924c1.88-0.85,3.795-1.695,5.734-2.548l2.07-0.901c2.036-0.879,4.102-1.759,6.202-2.641
			c0.614-0.258,1.228-0.514,1.851-0.774c2.227-0.928,4.575-1.89,6.977-2.863l1.369-0.555c2.821-1.133,5.672-2.258,8.478-3.35
			c0.029-0.015,0.063-0.029,0.097-0.041l0.755-0.251l-0.765-0.224c-0.804-0.239-1.607-0.47-2.412-0.704
			c-1.159-0.334-2.319-0.67-3.474-1.018c-2.076-0.629-4.175-1.294-6.212-1.939c-1.018-0.321-2.042-0.646-3.06-0.967l-3.668-1.155
			c-2.543-0.804-5.179-1.632-7.756-2.478c-1.915-0.628-3.83-1.279-5.739-1.927l-2.402-0.814c-4.853-1.642-9.213-3.15-13.325-4.609
			c-0.22-0.078-0.429-0.154-0.643-0.229c-2.68-0.955-5.554-1.983-8.405-3.028c-4.512-1.654-9.413-3.508-14.997-5.667
			c-0.853-0.329-1.71-0.655-2.567-0.981c-1.316-0.5-2.631-0.999-3.937-1.516c-6.475-2.562-13.091-5.281-20.233-8.309
			c-1.74-0.738-3.464-1.496-5.194-2.251c-0.789-0.346-1.579-0.692-2.368-1.035c-4.95-2.156-9.447-4.156-13.744-6.117
			c-3.06-1.393-5.73-2.626-8.161-3.766c-0.663-0.309-1.325-0.612-1.988-0.914c-0.312-0.144-0.629-0.285-0.94-0.429l0.171,0.015
			l-1.267-0.602c-4.254-2.015-7.82-3.722-11.415-5.493c-3.308-1.627-6.66-3.328-9.807-4.931c-3.109-1.584-6.456-3.318-10.534-5.464
			l-1.038-0.546c-2.972-1.569-6.046-3.189-9.057-4.826c-5.023-2.733-10.241-5.644-15.508-8.655c-2.762-1.581-5.51-3.189-8.555-4.977
			c-3.801-2.239-7.684-4.57-11.869-7.121c-0.804-0.49-1.607-0.977-2.411-1.464c-1.608-0.972-3.211-1.944-4.809-2.943
			c-5.218-3.259-10.762-6.831-16.96-10.918c-2.587-1.71-5.189-3.464-7.391-4.955c-4.253-2.872-8.541-5.832-13.106-9.048
			c-0.745-0.524-1.486-1.04-2.232-1.559c-1.116-0.777-2.232-1.552-3.333-2.346c-5.159-3.698-10.577-7.708-17.062-12.621
			c-1.998-1.513-3.966-3.033-6.314-4.852c-4.628-3.581-9.379-7.345-14.124-11.189c-0.565-0.46-1.13-0.911-1.7-1.364
			c-0.779-0.624-1.564-1.247-2.338-1.886c-5.145-4.231-10.69-8.933-16.945-14.375c-1.813-1.578-3.62-3.174-5.422-4.772
			c-5.384-4.775-10.242-9.186-14.845-13.486c-0.38-0.353-0.765-0.701-1.15-1.052c-0.507-0.463-1.018-0.929-1.52-1.404
			c-5.033-4.733-10.47-10.019-16.628-16.16c-1.568-1.569-3.128-3.148-4.706-4.743c-5.598-5.686-10.578-10.87-15.221-15.852
			c-0.283-0.302-0.565-0.597-0.848-0.894c-0.234-0.241-0.463-0.482-0.687-0.726c-4.877-5.259-10.139-11.13-16.088-17.943
			c-1.384-1.586-2.762-3.184-4.141-4.787c-5.681-6.612-10.67-12.58-15.25-18.241c-0.102-0.122-0.204-0.243-0.302-0.363
			c-0.117-0.139-0.234-0.275-0.346-0.417c-4.648-5.759-9.515-12.01-15.322-19.666c-1.257-1.661-2.514-3.325-3.761-5.002
			c-5.759-7.719-10.499-14.251-14.914-20.558l-0.044-0.063l-0.073-0.026c-0.103-0.037-0.176-0.071-0.234-0.098l0.107-0.046
			l-0.098-0.224c-0.092-0.216-9.267-22.053-21.101-60.862l-0.048-0.156l-0.161-0.02c-4.444-0.509-8.746-1.316-12.799-2.395
			l-0.102-0.027l-0.088,0.054c-1.315,0.779-2.67,1.559-4.039,2.346l-0.745,0.424c-3.591,2.042-7.187,4.003-10.68,5.83
			c-0.063,0.031-0.122,0.066-0.195,0.1c-30.285,15.821-66.774,29.197-102.207,28.011c-0.022-0.001-0.043-0.002-0.064-0.003
			c-2.059-0.069-4.116-0.189-6.165-0.359c-0.035-0.003-0.067-0.007-0.101-0.01c-29.038-2.442-57.07-15.238-80.046-45.147
			l-0.356-0.458l-0.093,0.57c-2.84,17.559-5.189,35.41-6.977,53.052l-0.01,0.092l0.054,0.078
			c43.347,60.117,65.247,141.49,86.421,220.185c5.564,20.669,11.318,42.043,17.315,62.419
			c22.271,75.634,52.629,148.248,90.236,215.827c32.195,57.861,70.076,106.182,109.545,139.737
			c48.063,40.858,97.851,59.961,148.063,56.77c58.256-3.703,111.869-38.149,161.125-74.819c5.71-4.251,11.513-8.628,17.13-12.86
			c42.801-32.258,87.055-65.613,137.164-80.784c53.047-16.063,123.361-8.014,160.872,46.164
			c11.571,16.714,19.449,36.984,27.07,56.589c11.147,28.694,22.68,58.368,45.876,75.883c13.35,10.08,29.257,15.162,47.386,15.162
			c2.656,0,5.364-0.107,8.117-0.327c18.538-1.476,38.343-7.961,57.262-18.753c31.703-18.08,60.872-44.987,89.179-82.256
			c25.267-33.266,47.644-71.695,69.286-108.86c30.237-51.927,61.505-105.62,101.739-147.6c13.325-13.908,31.41-30.348,53.15-34.075
			c19.63-3.374,43.854,6.835,50.319,29.771c3.883,13.793,0.619,28.999-2.534,43.703c-3.902,18.178-7.586,35.347,1.257,49.813
			c4.799,7.854,11.834,12.492,20.911,13.788c16.97,2.436,37.013-7.761,49.301-18.94c19.001-17.284,34.762-39.048,49.998-60.092
			c16.531-22.828,33.623-46.434,54.85-64.28c31.513-26.487,78.782-32.039,107.6-12.638l0.297,0.197l0.088-0.343
			c17.861-71.193,26.918-144.733,26.918-218.577C2026.395,933.315,2024.256,897.405,2020.042,861.894z"/>
	</g>
	<g>
		<path style="fill:#FADEAB;" d="M486.516,897.312c-0.121-0.171-0.247-0.333-0.367-0.505
			C485.835,896.95,486.003,897.122,486.516,897.312z"/>
		<path style="fill:#FADEAB;" d="M487.166,897.819l-0.74-0.273c-0.351-0.129-0.673-0.29-0.687-0.57c0-0.117,0.049-0.278,0.307-0.395
			l0.185-0.085l0.268,0.368c0.073,0.102,0.151,0.202,0.22,0.307L487.166,897.819z"/>
	</g>
	<path style="fill:#FADEA9;" d="M1903.411,658.256l-340.969,117.885l-20.027,6.924l-241.359,83.447
		c-38.11,8.994-79.606,16.291-123.023,22.167l-53.48-44.614l-256.43,65.865c-86.994,1.578-168.537,0.115-233.778-2.354
		c-4.475-0.169-8.848-0.345-13.167-0.524c-1.33-0.054-2.634-0.11-3.949-0.166c-3.123-0.133-6.203-0.266-9.239-0.403
		c-1.312-0.058-2.628-0.117-3.923-0.177c-4.079-0.187-8.102-0.376-12.01-0.569c-0.314-0.016-0.611-0.031-0.923-0.047
		c-3.932-0.196-7.781-0.393-11.53-0.593c-0.836-0.044-1.632-0.089-2.458-0.135c-3.193-0.172-6.336-0.346-9.386-0.52
		c-0.981-0.057-1.924-0.113-2.892-0.169c-2.824-0.165-5.604-0.33-8.297-0.496c-1.036-0.063-2.033-0.127-3.048-0.191
		c-2.508-0.158-4.97-0.315-7.354-0.472c-1.072-0.071-2.112-0.141-3.157-0.212c-2.239-0.151-4.425-0.301-6.546-0.451
		c-1.038-0.073-2.052-0.146-3.061-0.219c-2.016-0.146-3.972-0.292-5.873-0.436c-0.977-0.074-1.943-0.148-2.888-0.223
		c-1.836-0.143-3.598-0.285-5.313-0.425c-0.875-0.072-1.749-0.143-2.592-0.215c-1.659-0.14-3.229-0.277-4.764-0.414
		c-0.777-0.069-1.57-0.139-2.315-0.208c-1.461-0.135-2.82-0.265-4.153-0.396c-0.684-0.067-1.397-0.134-2.046-0.2
		c-1.313-0.133-2.507-0.262-3.679-0.39c-0.528-0.059-1.103-0.118-1.603-0.175c-1.222-0.139-2.303-0.271-3.347-0.404
		c-0.324-0.041-0.704-0.085-1.012-0.125c-1.252-0.165-2.359-0.322-3.317-0.472c-0.033-0.005-0.082-0.012-0.115-0.018
		c-1.005-0.159-1.836-0.312-2.497-0.454c-0.001,0-0.003-0.001-0.004-0.001l-0.003-0.001c-0.593-0.129-1.062-0.251-1.369-0.366
		c4.887,6.986,9.878,13.811,14.916,20.564c1.25,1.674,2.502,3.342,3.761,5.003c5.045,6.656,10.139,13.24,15.329,19.671
		c0.214,0.264,0.432,0.52,0.647,0.783c5.013,6.196,10.112,12.257,15.257,18.245c1.375,1.602,2.754,3.2,4.139,4.787
		c5.305,6.079,10.656,12.086,16.094,17.951c0.508,0.547,1.027,1.074,1.536,1.62c5.018,5.382,10.103,10.654,15.23,15.856
		c1.564,1.588,3.13,3.173,4.705,4.744c5.491,5.479,11.022,10.889,16.63,16.167c0.883,0.831,1.783,1.633,2.67,2.458
		c4.906,4.576,9.862,9.066,14.855,13.49c1.803,1.599,3.608,3.193,5.421,4.772c5.606,4.876,11.246,9.69,16.953,14.38
		c1.337,1.1,2.696,2.159,4.038,3.247c4.677,3.793,9.386,7.524,14.129,11.194c2.1,1.627,4.202,3.251,6.316,4.854
		c5.651,4.284,11.33,8.511,17.067,12.626c1.844,1.324,3.712,2.599,5.566,3.905c4.347,3.063,8.715,6.083,13.109,9.051
		c2.46,1.663,4.922,3.322,7.396,4.955c5.624,3.709,11.272,7.366,16.967,10.924c2.393,1.497,4.813,2.937,7.219,4.406
		c3.944,2.408,7.9,4.786,11.874,7.122c2.847,1.674,5.694,3.344,8.558,4.982c5.146,2.943,10.317,5.831,15.514,8.658
		c3.351,1.823,6.722,3.596,10.094,5.372c3.504,1.844,7.015,3.671,10.539,5.465c3.262,1.66,6.526,3.315,9.805,4.932
		c3.798,1.871,7.616,3.686,11.436,5.499c3.806,0.33,125.393,10.666,276.353,3.265c-49.738,14.317-101.407,30.613-144.002,47.183
		c-1.964-0.581-3.934-1.128-5.894-1.721c1.959,0.593,3.928,1.142,5.891,1.723c-0.041,0.015-0.082,0.032-0.124,0.048
		c-2.865,1.115-5.683,2.23-8.463,3.347c-0.462,0.186-0.912,0.372-1.371,0.557c-2.361,0.954-4.692,1.909-6.984,2.863
		c-0.623,0.259-1.235,0.518-1.851,0.777c-2.097,0.88-4.164,1.76-6.2,2.641c-0.695,0.3-1.384,0.6-2.07,0.901
		c-1.945,0.851-3.858,1.701-5.742,2.551c-0.68,0.307-1.363,0.614-2.036,0.921c-1.878,0.858-3.715,1.714-5.525,2.57
		c-0.615,0.291-1.24,0.582-1.846,0.872c-1.905,0.911-3.756,1.821-5.58,2.729c-0.454,0.228-0.927,0.455-1.377,0.682
		c-4.555,2.296-8.85,4.584-12.839,6.858c-0.208,0.12-0.4,0.237-0.608,0.357c-1.717,0.986-3.386,1.97-4.988,2.951
		c-0.542,0.331-1.049,0.661-1.577,0.993c-1.223,0.767-2.429,1.532-3.579,2.296c-0.602,0.4-1.172,0.797-1.753,1.195
		c-1.01,0.693-2,1.384-2.944,2.072c-0.586,0.427-1.148,0.852-1.709,1.277c-0.872,0.661-1.714,1.322-2.522,1.98
		c-0.531,0.431-1.05,0.861-1.553,1.291c-0.761,0.65-1.479,1.297-2.174,1.943c-0.462,0.427-0.926,0.854-1.357,1.279
		c-0.665,0.655-1.272,1.306-1.866,1.955c-0.371,0.406-0.761,0.812-1.105,1.215c-0.6,0.705-1.123,1.404-1.637,2.102
		c-0.249,0.339-0.535,0.681-0.764,1.018c-0.696,1.026-1.311,2.047-1.81,3.058c-0.002,0.005-0.005,0.009-0.007,0.012
		c-0.257,0.52-0.579,1.033-0.863,1.551c-2.321,4.237-5.484,8.386-9.452,12.431c-4.985,5.079-11.181,9.996-18.276,14.745
		c-1.777,1.189-3.592,2.371-5.48,3.539c-10.775,6.66-23.289,12.954-36.753,18.841c-1.683,0.736-3.382,1.465-5.091,2.188
		c-3.423,1.446-6.899,2.866-10.414,4.26c-1.759,0.697-3.528,1.386-5.305,2.069c-10.661,4.099-21.635,7.955-32.588,11.549
		c-1.826,0.599-3.65,1.19-5.472,1.775c-60.148,19.282-117.963,30.529-117.963,30.529h0.001c0,0,0.07,0.023,0.195,0.063
		c0.053,0.017,0.116,0.036,0.195,0.062c0.119,0.038,0.247,0.079,0.429,0.135c0.127,0.039,0.267,0.082,0.426,0.131
		c0.179,0.054,0.367,0.111,0.585,0.177c0.225,0.067,0.454,0.135,0.717,0.213c0.201,0.058,0.423,0.123,0.65,0.188
		c0.325,0.095,0.643,0.187,1.018,0.292c0.191,0.054,0.412,0.114,0.616,0.171c1.515,0.423,3.388,0.922,5.605,1.48
		c0.222,0.055,0.43,0.108,0.659,0.166c0.721,0.179,1.485,0.364,2.274,0.553c0.254,0.061,0.503,0.121,0.763,0.182
		c0.833,0.198,1.696,0.399,2.601,0.606c0.222,0.05,0.451,0.101,0.677,0.152c60.758,13.721,276.07,43.944,567.564-122.345
		c0.006-0.004,0.013-0.008,0.018-0.01h0.001c2.598,0.138,5.195,0.241,7.793,0.362c-2.59-0.121-5.179-0.238-7.77-0.376
		c14.62-8.342,29.416-17.141,44.41-26.499c1.473-0.919,2.945-1.839,4.421-2.767c10.302-6.485,20.703-13.26,31.172-20.245
		c1.502-1.002,2.992-1.972,4.497-2.984c9.295-6.253,18.661-12.736,28.083-19.398c1.451-1.026,2.909-2.077,4.362-3.112
		c22.581-16.09,45.505-33.353,68.756-51.905c112.226-28.298,211.708-74.873,264.203-150.491
		c169.131-243.63,327.895-251.813,376.369-206.445l0.001,0.001C1974.744,699.985,1903.411,658.256,1903.411,658.256z"/>
	<g>
		<path style="fill:#FFFFFF;" d="M1561.978,997.148c11.953,0,21.644-9.691,21.644-21.645c0-11.954-9.691-21.644-21.644-21.644
			c-11.955,0-21.646,9.691-21.646,21.644C1540.332,987.458,1550.022,997.148,1561.978,997.148z M1561.978,958.191
			c8.059,0,14.594,6.534,14.594,14.595c0,8.06-6.535,14.594-14.594,14.594c-8.061,0-14.596-6.535-14.596-14.594
			C1547.382,964.725,1553.916,958.191,1561.978,958.191z"/>
	</g>
	<g>
		<path style="fill:#FADEAB;" d="M665.482,593.446c-33.24-30.751-45.245-178.42-59.061-149.331
			c-13.816,29.089-27.518,62.754-75.84,89.935c-48.324,27.182-60.404,59.396-60.404,59.396
			C542.662,544.115,606.74,581.488,665.482,593.446z"/>
		<path style="fill:#FADEAB;" d="M469.665,594.094l0.278-0.736c0.122-0.324,12.663-32.611,60.516-59.525
			c45.515-25.603,60.321-57.075,73.384-84.838c0.789-1.676,1.568-3.338,2.353-4.987c1.321-2.782,2.685-4.044,4.102-3.905
			c5.354,0.563,10.563,22.412,17.155,50.073c9.228,38.721,20.711,86.908,38.202,103.086l0.653,0.604l-0.872-0.178
			c-12.419-2.526-24.843-6.122-37.993-9.927c-49.193-14.241-100.058-28.957-157.125,9.89L469.665,594.094z M548.579,568.367
			c1.208,0,2.412,0.014,3.63,0.043c26.192,0.639,51.196,7.876,75.376,14.872c12.838,3.715,24.98,7.23,37.096,9.744
			c-17.243-16.843-28.58-64.416-37.71-102.733c-6.29-26.383-11.722-49.167-16.726-49.693c-0.054-0.008-0.107-0.01-0.166-0.01
			c-1.135,0-2.29,1.221-3.435,3.633c-0.78,1.646-1.564,3.308-2.353,4.984c-13.091,27.832-27.932,59.379-73.588,85.06
			c-43.601,24.524-57.769,53.469-59.976,58.504C495.084,576.37,520.599,568.367,548.579,568.367z"/>
	</g>
	<g>
		<path style="fill:#FFFFFF;" d="M732.935,1368.353c9.061-0.726,332.277,7.184,492.321-212.716c0,0-169.159,106.803-250.705,141.275
			C893.005,1331.384,723.874,1369.079,732.935,1368.353z"/>
		<path style="fill:#FFFFFF;" d="M732.735,1368.615c-0.19,0-0.365-0.041-0.395-0.239c-0.073-0.438-0.083-0.495,22.792-6.222
			c47.303-11.847,158.09-39.589,219.322-65.471c80.594-34.071,248.974-140.188,250.67-141.257l1.101-0.694l-0.77,1.053
			c-34.865,47.907-80.356,88.716-135.201,121.293c-44.668,26.528-95.825,47.805-152.054,63.235
			c-64.419,17.676-134.105,27.435-201.52,28.217c-1.973,0.022-3.274,0.037-3.727,0.073l0,0
			C732.886,1368.608,732.808,1368.615,732.735,1368.615z M1224.286,1156.542c-14.763,9.277-172.438,107.963-249.637,140.599
			c-61.267,25.901-172.078,53.65-219.401,65.498c-10.216,2.558-18.163,4.548-21.189,5.425c0.639-0.013,1.511-0.022,2.617-0.034
			C815.478,1367.117,1083.18,1349.139,1224.286,1156.542z"/>
	</g>
	<g>
		<path style="fill:#69B2AD;" d="M1481.567,465.883c-0.034-4.358-0.025-8.819-0.01-13.131c0.073-24.921,0.151-50.689-9.018-73.99
			c-0.575-1.45-1.247-2.931-2.582-3.715c-1.082-0.631-2.207-0.697-3.333-0.219c-2.456,1.043-4.458,4.565-5.174,7.505
			c-5.33,22-6.631,44.546-3.864,67.011c0.506,4.093,1.154,8.29,1.778,12.351c2.5,16.178,5.077,32.906-0.409,48.227
			c-0.76,2.117-1.905,4.716-4.083,6.029c-1.603,0.962-3.308,1.16-5.096,0.575c-4.122-1.349-7.947-6.687-9.905-11.373l-10.553-25.262
			c-0.468-1.131-1.053-2.536-2.11-3.486c-1.126-1.008-2.685-1.369-4.326-1.04c-2.222,0.448-4.268,2.034-5.213,4.041
			c-1.671,3.549-0.925,7.739-0.321,11.106c2.772,15.345,5.539,30.687,8.307,46.031l4.351,24.1l0.024,0.139l13.949,5.421
			l19.844,19.54l-0.215-0.863c-0.55-2.195,0.156-4.409,1.993-6.239c2.509-2.495,6.534-3.646,9.793-2.823
			c5.676,1.454,9.637,6.356,13.525,11.681l11.673,15.995l-0.351-1.299C1488.247,557.77,1481.962,511.907,1481.567,465.883z"/>
		<path style="fill:#69B2AD;" d="M1288.213,403.149c-1.535-2.865-3.133-4.265-4.877-4.265c-0.156,0-0.312,0.009-0.468,0.034
			c-0.877,0.122-1.598,0.555-2.144,1.281c-1.194,1.594-1.296,4.343-0.999,6.39c2.909,19.851,9.267,39.067,18.899,57.111
			c9.627,18.046,22.056,34.019,36.935,47.483l0.624,0.565l-9.939-37.566L1288.213,403.149z"/>
		<path style="fill:#69B2AD;" d="M1377.362,259.863c-3.937,3.174-5.734,8.183-6.972,12.665c-6.027,21.781-3.878,45.953,5.905,66.314
			l0.38,0.789l2.602-24.022v-0.029c-0.137-13.157,3.04-26.268,9.179-37.91c3.323-6.297,6.241-12.836,2.363-17.521
			C1387.564,256.207,1381.104,256.845,1377.362,259.863z"/>
		<path style="fill:#69B2AD;" d="M1568.617,585.963c-3.917-3.291-10.144-1.513-13.291,2.134c-3.308,3.84-4.175,9.086-4.584,13.713
			c-2.022,22.506,4.433,45.898,17.714,64.177l0.512,0.709l-1.749-24.102l-0.005-0.029c-2.495-12.921-1.725-26.385,2.227-38.938
			C1571.116,598.28,1573.65,590.201,1568.617,585.963z"/>
		<path style="fill:#69B2AD;" d="M1168.656,448.477c-4.419-1.442-9.598-2.704-14.412-1.179c-4.594,1.457-8.677,6.489-7.191,11.381
			c1.769,5.817,8.833,6.994,15.917,7.701c13.087,1.306,25.769,5.897,36.702,13.291l20.692,10.685l0.774,0.402l-0.448-0.753
			C1209.104,470.611,1190.142,455.473,1168.656,448.477z"/>
	</g>
	<g>
		<path style="fill:#F9B298;" d="M804.345,1164.749l-1.573-0.112l1.198,0.567c0.746,0.351,1.491,0.692,2.242,1.031
			c0.658,0.302,1.32,0.604,1.978,0.914c2.436,1.14,5.111,2.373,8.171,3.766c4.298,1.961,8.799,3.963,13.754,6.122
			c0.784,0.344,1.574,0.689,2.363,1.033c1.73,0.758,3.459,1.516,5.199,2.254c7.147,3.033,13.769,5.751,20.244,8.314
			c1.311,0.519,2.626,1.018,3.942,1.52c0.857,0.324,1.715,0.651,2.572,0.979c5.578,2.161,10.484,4.015,14.996,5.668
			c2.519,0.921,5.242,1.903,8.575,3.087l0.477,0.171c4.117,1.464,8.482,2.972,13.34,4.614l2.397,0.813
			c1.915,0.651,3.825,1.299,5.744,1.927c2.582,0.848,5.218,1.678,7.761,2.479l3.669,1.157c1.018,0.319,2.042,0.643,3.06,0.967
			c2.037,0.643,4.141,1.311,6.216,1.939c1.111,0.336,2.222,0.655,3.338,0.977c0.853,0.246,1.71,0.492,2.558,0.745l0.083,0.024
			l0.083-0.032c37.578-14.621,86.022-30.492,143.975-47.176l2.066-0.592l-2.149,0.105
			C930.493,1175.365,809.923,1165.229,804.345,1164.749z"/>
		<path style="fill:#F9B298;" d="M2021.201,837.032c-0.034-1.189-0.088-2.472-0.176-4.041c-0.063-1.26-0.136-2.612-0.239-3.964
			c-0.093-1.196-0.209-2.499-0.356-3.98c-0.132-1.299-0.268-2.59-0.424-3.868c-0.166-1.347-0.356-2.675-0.536-3.91
			c-0.209-1.415-0.405-2.653-0.599-3.781c-0.195-1.167-0.429-2.424-0.706-3.847c-0.239-1.23-0.487-2.458-0.75-3.676
			c-0.243-1.125-0.516-2.324-0.867-3.774c-0.292-1.206-0.59-2.404-0.906-3.596c-0.331-1.237-0.672-2.468-1.023-3.688
			c-0.336-1.177-0.687-2.346-1.042-3.508c-0.356-1.15-0.736-2.333-1.165-3.618c-0.385-1.143-0.775-2.278-1.174-3.403
			c-0.458-1.294-0.886-2.456-1.306-3.552c-0.419-1.113-0.848-2.214-1.291-3.313c-0.468-1.162-0.94-2.316-1.427-3.464
			c-0.093-0.217-0.181-0.434-0.268-0.653c-0.112-0.287-0.229-0.572-0.351-0.853l-0.146-0.168v-0.003
			c-18.017-16.841-48.502-24.363-83.645-20.626c-41.218,4.377-86.981,23.786-132.356,56.127
			c-55.167,39.32-109.237,96.858-160.716,171.011c-46.802,67.413-135.644,118.012-264.063,150.392l-0.093,0.046
			c-22.592,18.029-45.72,35.489-68.745,51.898l-0.804,0.572l0.979-0.122c48.94-6.139,96.141-15.169,140.292-26.843
			c156.141-41.281,357.427-138.372,429.822-366.416l1.963,0.621c-32.092,101.082-91.854,185.179-177.627,249.953
			c-68.638,51.842-153.997,91.488-253.7,117.842c-45.696,12.078-94.538,21.316-145.174,27.457l-0.117,0.044
			c-9.686,6.855-19.133,13.382-28.078,19.398l-0.726,0.49l0.877-0.034c70.309-2.677,137.978-10.704,201.13-23.851
			c175.074-36.448,403.356-131.925,496.823-379.817l2.173,0.819c-41.432,109.88-112.468,199.361-211.138,265.941
			c-78.943,53.274-175.658,92.083-287.454,115.352c-64.658,13.454-133.983,21.545-206.051,24.042l-0.068,0.003l-0.058,0.039
			c-11.153,7.44-21.345,14.061-31.167,20.241l-0.721,0.453l0.853,0.007c3.649,0.031,7.406,0.049,11.279,0.049
			c63.401,0,155.449-4.59,252.711-24.841c175.074-36.445,403.352-131.924,496.823-379.819l2.173,0.819
			c-41.432,109.883-112.468,199.364-211.137,265.941c-78.947,53.276-175.664,92.088-287.454,115.352
			c-98.796,20.56-192.044,24.877-252.877,24.877c-4.911,0-9.974-0.034-15.932-0.107l-0.073-0.003l-0.063,0.039
			c-14.422,8.999-29.359,17.912-44.404,26.494l-0.741,0.422l0.848,0.044c2.314,0.124,4.623,0.231,6.933,0.336l0.843,0.039
			c4.716,0.222,9.491,0.417,14.187,0.577l0.068,0.002c2.958,0.102,5.905,0.205,8.862,0.282c5.175,0.139,10.651,0.244,16.746,0.319
			c0.833,0.012,1.661,0.024,2.495,0.036c1.344,0.022,2.694,0.044,4.039,0.051c2.48,0.02,4.989,0.027,7.556,0.027
			c4.175,0,8.497-0.022,13.052-0.071c2.134-0.022,4.263-0.058,6.397-0.097l2.149-0.039c4.95-0.085,9.754-0.195,14.271-0.329
			c2.933-0.085,5.861-0.173,8.784-0.277c4.911-0.178,10.217-0.41,16.229-0.709c0.887-0.044,1.784-0.083,2.675-0.124
			c1.14-0.051,2.28-0.1,3.42-0.163c6.689-0.368,13.642-0.814,21.242-1.365c1.886-0.136,3.766-0.285,5.647-0.436l2.382-0.19
			c5.223-0.411,9.944-0.811,14.441-1.218c2.831-0.256,5.656-0.516,8.482-0.792l0.906-0.085c4.536-0.448,9.393-0.96,14.85-1.562
			c0.868-0.097,1.74-0.19,2.607-0.282c1.213-0.129,2.426-0.258,3.64-0.397c0.609-0.071,1.218-0.146,1.827-0.221l1.096-0.132
			c0.375-0.044,0.755-0.093,1.135-0.139l0.638-0.08c5.983-0.716,11.289-1.384,16.224-2.039c1.837-0.241,3.669-0.502,5.506-0.76
			l2.801-0.392c0.502-0.068,1.008-0.139,1.51-0.212c4.205-0.589,8.297-1.186,12.161-1.773c2.709-0.41,5.408-0.821,8.107-1.247
			l2.592-0.4c4.38-0.704,8.721-1.442,12.799-2.139c0.775-0.132,1.549-0.261,2.329-0.392c1.272-0.212,2.539-0.424,3.805-0.646
			c0.848-0.151,1.695-0.305,2.543-0.461c0.619-0.112,1.233-0.226,1.851-0.336c0.658-0.119,1.311-0.241,1.964-0.363
			c0.536-0.1,1.067-0.197,1.598-0.294c4.478-0.819,8.512-1.559,12.58-2.346c1.471-0.287,2.938-0.582,4.409-0.879l3.966-0.794
			c0.945-0.188,1.896-0.378,2.84-0.57c3.367-0.687,6.729-1.386,10.085-2.097c2.553-0.541,5.096-1.089,7.64-1.644
			c4.736-1.035,9.612-2.139,14.908-3.367c0.775-0.18,1.555-0.358,2.329-0.536c1.218-0.28,2.436-0.56,3.649-0.845
			c1.335-0.319,2.665-0.643,3.99-0.97l1.769-0.433c0.964-0.232,1.924-0.47,2.884-0.707l4.19-1.035
			c2.372-0.585,4.75-1.172,7.113-1.776c1.155-0.297,2.309-0.602,3.459-0.906c0.819-0.217,1.632-0.431,2.451-0.646
			c0.858-0.224,1.71-0.448,2.568-0.674l1.535-0.402c0.794-0.207,1.588-0.414,2.377-0.626c2.719-0.726,5.428-1.466,8.137-2.212
			c2.353-0.648,4.702-1.301,7.045-1.961l2.061-0.58c1.452-0.407,2.904-0.814,4.346-1.23c0.224-0.063,0.448-0.132,0.672-0.198
			c0.219-0.066,0.438-0.131,0.663-0.197c1.642-0.473,3.274-0.957,4.906-1.442l3.834-1.13c1.218-0.358,2.441-0.719,3.659-1.084
			c1.925-0.58,3.839-1.174,5.754-1.769l1.243-0.385c1.622-0.499,3.235-1.003,4.852-1.51l2.538-0.794
			c1.613-0.504,3.23-1.008,4.838-1.525c1.004-0.322,2.008-0.653,3.006-0.984c0.652-0.217,1.311-0.434,1.968-0.651
			c1.783-0.58,3.562-1.165,5.335-1.754c0.487-0.161,0.97-0.319,1.457-0.478c0.487-0.158,0.979-0.316,1.462-0.478
			c1.447-0.484,2.884-0.977,4.322-1.469l1.939-0.663c2.192-0.75,4.375-1.506,6.553-2.266l1.69-0.592
			c1.905-0.665,3.805-1.33,5.7-2.005c0.604-0.214,1.203-0.434,1.802-0.653c0.595-0.216,1.194-0.436,1.798-0.652
			c0.911-0.331,1.822-0.663,2.733-0.996l2.022-0.733c1.14-0.412,2.28-0.823,3.416-1.242c2.368-0.877,4.721-1.774,7.074-2.668
			l1.9-0.724c1.33-0.504,2.655-1.009,3.976-1.515c0.682-0.263,1.359-0.524,2.042-0.785c1.106-0.421,2.207-0.843,3.303-1.274
			c0.77-0.3,1.53-0.607,2.294-0.913c0.58-0.236,1.164-0.47,1.754-0.704c2.875-1.141,5.847-2.319,8.74-3.498l0.41-0.163
			c0.19-0.076,0.38-0.151,0.565-0.227c0.984-0.402,1.954-0.809,2.923-1.216l1.676-0.699c1.983-0.821,3.956-1.654,5.93-2.485
			c2.767-1.169,5.53-2.341,8.273-3.53c1.048-0.453,2.08-0.908,3.118-1.366l3.483-1.53c1.067-0.465,2.134-0.931,3.197-1.403
			c3.05-1.362,6.115-2.767,9.072-4.129l1.257-0.572c1.091-0.499,2.183-0.999,3.269-1.503c0.501-0.234,1.003-0.467,1.51-0.699
			c0.697-0.322,1.394-0.643,2.086-0.969c0.565-0.266,1.125-0.536,1.681-0.807c0.458-0.222,0.916-0.441,1.374-0.66
			c3.654-1.742,7.435-3.542,11.099-5.347c0.205-0.1,0.409-0.2,0.609-0.302l0.482-0.241c0.302-0.151,0.604-0.304,0.911-0.458
			c0.297-0.154,0.6-0.305,0.906-0.456c1.778-0.887,3.547-1.781,5.315-2.672c3.352-1.693,6.266-3.187,8.916-4.565
			c0.701-0.366,1.398-0.734,2.095-1.101l2.514-1.318c1.096-0.575,2.197-1.15,3.284-1.73c3.401-1.815,6.801-3.681,9.997-5.437
			c0.511-0.283,1.023-0.565,1.54-0.846c0.735-0.404,1.476-0.809,2.207-1.218c0.322-0.177,0.648-0.358,0.97-0.536
			c0.395-0.217,0.789-0.434,1.179-0.653c0.351-0.197,0.692-0.395,1.038-0.594c0.341-0.197,0.682-0.395,1.028-0.592
			c4.385-2.484,8.248-4.719,11.819-6.823c0.312-0.183,0.619-0.37,0.926-0.555c0.249-0.151,0.501-0.304,0.75-0.453
			c1.384-0.819,2.748-1.644,4.117-2.47l0.629-0.38c3.308-1.998,6.354-3.869,9.321-5.72c0.331-0.207,0.663-0.414,0.989-0.621
			l1.554-0.974c1.16-0.726,2.319-1.452,3.469-2.183c3.454-2.205,7.069-4.561,11.04-7.203c0.356-0.234,0.712-0.465,1.062-0.697
			c0.463-0.3,0.921-0.599,1.379-0.904c0.19-0.129,0.38-0.258,0.575-0.385l0.375-0.249c0.219-0.149,0.433-0.297,0.643-0.446
			l0.346-0.239c3.98-2.692,8.014-5.493,12.336-8.56l0.59-0.429c1.028-0.735,2.051-1.476,3.069-2.217l1.077-0.779
			c3.108-2.256,6.29-4.609,9.452-6.997l1.184-0.892c1.023-0.772,2.046-1.545,3.055-2.321c4.784-3.681,8.955-6.977,12.75-10.078
			c3.537-2.889,7.274-6.017,11.751-9.839c0.263-0.226,0.541-0.455,0.809-0.682c0.248-0.207,0.492-0.412,0.731-0.614
			c0.828-0.709,1.618-1.413,2.407-2.114c0.546-0.487,1.087-0.972,1.647-1.459l1.096-0.957c2.203-1.922,4.478-3.91,6.626-5.851
			l0.707-0.639c1.052-0.952,2.061-1.897,3.069-2.845c0.541-0.506,1.082-1.016,1.632-1.525l1.198-1.106
			c1.422-1.313,2.845-2.626,4.219-3.932c0.273-0.261,0.555-0.524,0.833-0.784c0.253-0.234,0.502-0.468,0.745-0.702
			c1.028-0.981,2.007-1.956,2.991-2.933c0.59-0.589,1.184-1.179,1.788-1.768c0.526-0.519,1.057-1.038,1.589-1.557
			c1.135-1.108,2.266-2.214,3.357-3.315l0.507-0.502c0.234-0.237,0.472-0.473,0.706-0.707c1.043-1.065,2.046-2.122,3.05-3.179
			c0.516-0.541,1.033-1.084,1.554-1.627c0.497-0.521,1.004-1.045,1.506-1.566c0.979-1.014,1.959-2.027,2.894-3.031
			c0.166-0.175,0.331-0.351,0.502-0.526c0.166-0.176,0.336-0.353,0.501-0.534l0.181-0.197c1.003-1.087,1.963-2.163,2.923-3.242
			c0.482-0.536,0.96-1.075,1.447-1.615c0.424-0.47,0.852-0.943,1.281-1.413c0.77-0.85,1.54-1.698,2.275-2.538l0.56-0.631
			c0.327-0.368,0.653-0.733,0.97-1.099c1.004-1.155,1.973-2.319,2.914-3.445c0.404-0.482,0.804-0.962,1.208-1.442
			c0.453-0.541,0.916-1.079,1.374-1.62c0.828-0.972,1.657-1.944,2.451-2.911l0.268-0.331c0.175-0.219,0.351-0.441,0.536-0.66
			c0.911-1.125,1.793-2.261,2.65-3.357c0.4-0.514,0.799-1.028,1.203-1.542c0.332-0.422,0.668-0.843,1.004-1.267
			c0.521-0.658,1.043-1.316,1.545-1.968l0.633-0.821c0.341-0.443,0.687-0.886,1.023-1.328c0.897-1.193,1.754-2.377,2.612-3.562
			l0.959-1.33c0.307-0.419,0.619-0.84,0.931-1.262c0.589-0.794,1.174-1.588,1.734-2.375l0.302-0.426l0.848-1.206
			c0.819-1.172,1.612-2.356,2.378-3.498l1.535-2.275c0.419-0.612,0.833-1.223,1.232-1.83c0.195-0.297,0.395-0.597,0.595-0.894
			c0.292-0.436,0.58-0.872,0.862-1.311l0.142-0.229c0.755-1.169,1.476-2.346,2.178-3.486l0.784-1.271
			c0.234-0.383,0.473-0.763,0.711-1.143c0.36-0.575,0.721-1.15,1.062-1.72l0.351-0.577c0.341-0.568,0.687-1.137,1.018-1.7
			c0.74-1.255,1.447-2.519,2.129-3.742l0.551-0.979c0.185-0.329,0.375-0.658,0.565-0.989c0.336-0.585,0.677-1.172,0.994-1.754
			c0.419-0.765,0.838-1.532,1.247-2.295c0.619-1.154,1.208-2.316,1.778-3.442l0.643-1.262c0.137-0.266,0.273-0.534,0.415-0.802
			c0.219-0.426,0.438-0.85,0.648-1.272l0.302-0.609c0.375-0.745,0.75-1.491,1.106-2.237c0.619-1.284,1.203-2.58,1.773-3.832
			l0.38-0.833c0.156-0.351,0.322-0.699,0.487-1.05c0.258-0.563,0.521-1.125,0.77-1.683c0.307-0.697,0.609-1.393,0.906-2.092
			c0.575-1.345,1.12-2.697,1.642-4.007l0.468-1.16c0.107-0.263,0.219-0.523,0.321-0.784l0.282-0.721
			c0.341-0.855,0.682-1.713,1.004-2.558c0.015-0.046,0.035-0.093,0.039-0.115c0.488-1.293,0.941-2.597,1.384-3.856l0.244-0.706
			c0.102-0.283,0.204-0.57,0.307-0.855c0.127-0.351,0.253-0.701,0.375-1.05l0.214-0.643c0.234-0.701,0.472-1.403,0.696-2.1
			c0.405-1.257,0.785-2.523,1.15-3.746l0.224-0.75c0.044-0.151,0.093-0.305,0.137-0.458l0.312-1.045
			c0.302-1.026,0.604-2.049,0.877-3.067c0.37-1.359,0.706-2.726,1.033-4.049l0.092-0.377c0.098-0.373,0.195-0.753,0.288-1.126
			l0.122-0.507c0.229-0.957,0.453-1.91,0.662-2.86c0.268-1.211,0.511-2.431,0.74-3.613l0.297-1.491
			c0.234-1.206,0.473-2.453,0.677-3.671c0.244-1.43,0.453-2.867,0.668-4.312c0.005-0.058,0.015-0.117,0.024-0.173
			c0.01-0.065,0.02-0.131,0.029-0.188c0.18-1.252,0.37-2.597,0.536-3.953c0.175-1.481,0.321-2.969,0.438-4.246l0.044-0.482
			c0.117-1.228,0.233-2.497,0.321-3.737c0.093-1.338,0.161-2.646,0.229-4.197c0.073-1.537,0.122-2.826,0.151-4.122
			c0.029-1.383,0.029-2.774,0.029-4.122C2021.245,839.792,2021.235,838.408,2021.201,837.032z"/>
		<path style="fill:#F9B298;" d="M620.796,381.161c0,0-41.982,115.802-100.752,138.555c-58.648,22.705-83.561,55.838-100.837,93.548
			l-0.074-0.012c-25.554-3.985-49.983-4.468-72.609-1.444c-30.28,4.051-57.32,14.411-80.365,30.796
			c-26.47,18.821-71.518,19.932-104.657,17.535c-35.932-2.59-65.978-9.73-66.275-9.803l-0.161,0.473
			c0.156,0.065,15.542,7.004,40.75,30.141c23.279,21.369,59.912,61.305,102.222,130.214c2.884,4.697,5.958,9.157,9.398,13.632
			c23.249,30.258,53.934,45.576,91.274,45.576c1.286,0,2.587-0.019,3.888-0.056c28.526-0.797,60.17-10.175,94.056-27.871
			c0.068-0.034,0.132-0.071,0.195-0.102c3.498-1.827,7.094-3.791,10.69-5.837l0.745-0.424c1.379-0.787,2.733-1.572,4.049-2.351
			l0.512-0.302l-0.575-0.153c-15.513-4.129-26.64-12.073-33.067-23.61c-17.012-30.519-1.403-181.626,0.03-195.106
			c11.609,96.254,30.903,172.496,45.804,221.358c11.976,39.275,21.115,60.887,21.115,60.887l1.736,0.871l0.003,0.001
			c0.001,0,0.004,0.001,0.004,0.001c0.661,0.142,1.492,0.295,2.497,0.454c0.033,0.006,0.082,0.012,0.115,0.018
			c0.957,0.151,2.064,0.308,3.317,0.472c0.308,0.04,0.688,0.084,1.012,0.125c1.044,0.132,2.125,0.265,3.347,0.404
			c0.499,0.056,1.074,0.116,1.603,0.175c1.172,0.128,2.366,0.257,3.679,0.39c0.649,0.066,1.363,0.133,2.046,0.2
			c1.333,0.131,2.692,0.261,4.153,0.396c0.745,0.069,1.539,0.138,2.315,0.208c1.535,0.137,3.105,0.275,4.764,0.414
			c0.843,0.071,1.717,0.143,2.592,0.215c1.715,0.141,3.476,0.283,5.313,0.425c0.945,0.074,1.911,0.148,2.888,0.223
			c1.901,0.144,3.857,0.29,5.873,0.436c1.009,0.073,2.024,0.146,3.061,0.219c2.12,0.151,4.307,0.3,6.546,0.451
			c1.045,0.071,2.085,0.141,3.157,0.212c2.385,0.157,4.846,0.314,7.354,0.472c1.015,0.064,2.012,0.127,3.048,0.191
			c2.693,0.166,5.472,0.331,8.297,0.496c0.967,0.056,1.91,0.112,2.892,0.169c3.05,0.174,6.194,0.348,9.386,0.52
			c0.826,0.045,1.622,0.09,2.458,0.135c3.749,0.2,7.598,0.397,11.53,0.593c0.313,0.016,0.609,0.031,0.923,0.047
			c3.907,0.193,7.931,0.382,12.01,0.569c1.294,0.06,2.613,0.118,3.923,0.177c3.035,0.137,6.115,0.271,9.239,0.403
			c1.314,0.055,2.62,0.111,3.949,0.166c4.319,0.179,8.692,0.355,13.167,0.524c-33.113-28.94-67.788-64.204-101.515-106.629
			c46.089-18.542,199.634-90.827,143.074-211.984C609.663,447.073,620.796,381.161,620.796,381.161z M470.177,593.446
			c0,0,12.081-32.214,60.404-59.396c48.323-27.182,62.024-60.846,75.84-89.935c13.816-29.089,25.821,118.58,59.061,149.331
			C606.74,581.488,542.662,544.115,470.177,593.446z"/>
	</g>
	<g>
		<path style="fill:#008BA1;" d="M486.309,897.453l0.044,0.066l0.073,0.026c0.312,0.115,0.775,0.237,1.408,0.375l1.944,0.422
			l-4.414-2.207l0.731,1.026C486.167,897.258,486.24,897.353,486.309,897.453z"/>
		<path style="fill:#008BA1;" d="M1399.803,590.319c101.121,32.991,136.341,141.522,142.611,192.747l20.027-6.924
			c-38.738-74.011-35.952-161.876-53.275-257.318c-19.797-109.062,0.94-253.813-67.569-198.99
			c-68.51,54.822,44.727,206.128-4.014,138.815c-48.741-67.312-66.344-94.304-40.292,34.761
			c26.051,129.065-59.128-25.514-111.508-120.668c-52.38-95.155-34.464,40.352,27.452,128.131
			c61.917,87.779-78.286-5.957-167.693,14.44C1056.135,535.711,1268.897,547.61,1399.803,590.319z"/>
		<path style="fill:#008BA1;" d="M1999.374,1186.942c-14.261-9.596-33.408-13.423-53.91-10.826
			c-20.025,2.553-39.303,10.899-54.295,23.498c-21.276,17.883-38.387,41.515-54.933,64.368
			c-15.22,21.025-30.962,42.767-49.925,60.015c-12.205,11.101-32.068,21.245-48.901,18.816c-8.921-1.274-15.835-5.834-20.551-13.552
			c-8.745-14.297-5.076-31.371-1.198-49.449c3.167-14.762,6.446-30.031,2.524-43.944c-2.938-10.436-10.066-19.233-20.063-24.772
			c-9.321-5.162-20.541-7.116-30.821-5.355c-21.88,3.754-40.043,20.261-53.422,34.222c-40.273,42.025-71.556,95.744-101.807,147.695
			c-43.152,74.095-87.771,150.716-158.28,190.938c-41.905,23.893-83.849,25.374-112.219,3.946
			c-23.084-17.427-34.075-45.717-45.715-75.664c-7.63-19.632-15.517-39.932-27.123-56.692
			c-16.926-24.451-42.153-41.464-72.95-49.201c-27.878-7.006-59.303-5.993-88.477,2.843c-50.193,15.199-94.485,48.58-137.32,80.862
			c-5.613,4.232-11.42,8.609-17.13,12.86c-49.194,36.624-102.729,71.028-160.852,74.721c-3.581,0.229-7.128,0.336-10.651,0.336
			c-123.474,0-213.096-136.567-246.49-196.589c-37.593-67.545-67.936-140.124-90.197-215.724
			c-5.997-20.368-11.747-41.74-17.31-62.409c-21.189-78.738-43.099-160.156-86.494-220.346l-0.453-0.646v0.772
			c-0.643,6.302-1.247,13.069-1.842,20.682c-0.107,1.364-0.2,2.733-0.297,4.102l-0.142,2.073c-0.39,5.447-0.696,10.285-0.94,14.789
			c-0.132,2.37-0.249,4.738-0.366,7.111c-0.219,4.768-0.409,9.727-0.56,14.743c-0.024,0.858-0.053,1.715-0.083,2.572
			c-0.044,1.289-0.088,2.58-0.117,3.876c-0.18,7.693-0.263,14.57-0.263,21.018c0,120.864,23.669,238.114,70.358,348.491
			c22.436,53.05,50.207,104.219,82.543,152.08c32.029,47.408,68.809,91.988,109.325,132.504
			c40.512,40.511,85.091,77.296,132.502,109.325c47.863,32.331,99.03,60.107,152.078,82.543
			c110.377,46.689,227.625,70.358,348.492,70.358c6.558,0,13.598-0.088,21.525-0.273c1.326-0.034,2.651-0.078,3.971-0.127
			c0.984-0.034,1.973-0.068,2.963-0.098c5.593-0.175,10.217-0.351,14.548-0.555c2.685-0.127,5.364-0.277,8.044-0.429
			c4.746-0.268,9.15-0.546,13.471-0.858c2.714-0.19,5.471-0.395,8.185-0.614c4.068-0.327,8.38-0.711,13.579-1.203l2.762-0.263
			c1.632-0.156,3.264-0.312,4.892-0.478c4.546-0.472,9.325-1.023,15.493-1.774c0.706-0.087,1.418-0.166,2.124-0.248
			c1.12-0.127,2.241-0.258,3.357-0.399c6.972-0.891,13.939-1.871,20.711-2.899c1.038-0.161,2.071-0.331,3.109-0.502
			c0.638-0.107,1.277-0.209,1.92-0.312c5.744-0.901,10.845-1.749,15.6-2.587c1.739-0.307,3.469-0.629,5.204-0.95l2.319-0.434
			c5.038-0.93,9.179-1.72,13.033-2.495c2.699-0.541,5.394-1.101,8.088-1.666c4.107-0.862,8.312-1.778,12.492-2.719
			c2.66-0.599,5.325-1.198,7.981-1.822c3.742-0.877,7.747-1.857,12.984-3.167c0.848-0.214,1.695-0.424,2.538-0.633
			c1.544-0.385,3.089-0.765,4.623-1.16c5.203-1.354,10.656-2.83,16.658-4.512c0.521-0.146,1.048-0.287,1.574-0.429
			c0.551-0.146,1.106-0.297,1.657-0.453c6.251-1.779,12.584-3.664,19.367-5.759c1.535-0.477,3.06-0.969,4.584-1.462l2.368-0.76
			c4.697-1.486,8.79-2.816,12.516-4.059c2.115-0.712,4.219-1.437,6.324-2.158l1.676-0.58c4.127-1.428,7.844-2.733,11.347-4
			c2.645-0.95,5.413-1.963,8.229-3.006c3.503-1.306,7.137-2.69,11.113-4.229l1.578-0.609c2.144-0.828,4.288-1.656,6.421-2.504
			c4.02-1.603,8.02-3.254,11.776-4.813c0.814-0.336,1.627-0.667,2.441-1.004c1.54-0.634,3.079-1.262,4.614-1.915
			c6.354-2.704,12.2-5.262,17.876-7.82c1.389-0.624,2.767-1.272,4.146-1.915c0.775-0.36,1.545-0.721,2.319-1.077
			c3.635-1.676,7.756-3.576,11.791-5.51c2.115-1.008,4.21-2.042,6.31-3.074l1.798-0.882c3.191-1.568,6.583-3.245,9.934-4.94
			c2.534-1.286,5.223-2.665,8.463-4.351c3.484-1.812,6.553-3.434,9.384-4.955c2.523-1.35,5.51-2.953,8.507-4.594
			c2.816-1.545,5.656-3.147,8.409-4.702l2.884-1.623c2.09-1.179,4.18-2.358,6.256-3.557c2.88-1.667,5.783-3.401,8.595-5.077
			l1.087-0.648c4.438-2.645,8.467-5.091,12.321-7.469c3.64-2.251,7.406-4.575,11.074-6.914c2.178-1.394,4.38-2.835,6.509-4.234
			l3.333-2.183c2.227-1.457,4.531-2.962,6.782-4.468c2.967-1.993,5.958-4.039,8.745-5.958c2.236-1.535,4.887-3.362,7.591-5.262
			c3.025-2.124,5.983-4.229,8.804-6.261c2.285-1.647,4.541-3.294,7.221-5.267c2.909-2.139,5.919-4.355,8.852-6.568
			c1.778-1.344,3.542-2.709,5.306-4.068l2.704-2.08c2.553-1.964,5.199-3.99,7.771-6.022c0.755-0.6,1.51-1.208,2.26-1.818
			c0.614-0.497,1.228-0.999,1.846-1.491c6.65-5.32,13.316-10.811,19.81-16.317c0.59-0.497,1.184-0.999,1.774-1.496
			c1.096-0.921,2.193-1.842,3.274-2.772c2.918-2.509,5.846-5.096,8.677-7.6l0.507-0.448c1.861-1.642,3.722-3.284,5.574-4.945
			c2.782-2.5,5.71-5.174,8.96-8.176c1.808-1.666,3.605-3.347,5.403-5.033c3.362-3.157,6.285-5.939,8.95-8.502
			c1.087-1.057,2.173-2.114,3.255-3.177l1.623-1.583c2.943-2.884,6.075-5.963,9.188-9.101c0.59-0.589,1.169-1.189,1.749-1.788
			c0.516-0.531,1.033-1.062,1.555-1.588c10.947-11.162,21.734-22.739,32.054-34.417c0.443-0.497,0.882-0.994,1.32-1.486
			c0.56-0.629,1.121-1.257,1.681-1.89c3.216-3.678,6.349-7.357,8.984-10.465l0.629-0.74c1.018-1.199,2.036-2.397,3.045-3.603
			c2.875-3.435,5.788-6.965,8.658-10.497c1.169-1.442,2.329-2.889,3.488-4.341c3.352-4.171,6.115-7.662,8.692-10.984
			c0.448-0.575,0.887-1.154,1.33-1.732c0.404-0.529,0.809-1.058,1.218-1.586c13.632-17.727,26.758-36.187,39.021-54.872l0.906-1.376
			c0.351-0.534,0.707-1.07,1.057-1.608c2.514-3.874,5.14-7.99,8.024-12.592c0.774-1.233,1.544-2.466,2.319-3.703
			c2.695-4.356,5.311-8.65,7.771-12.762c0.375-0.631,0.746-1.264,1.121-1.895l0.775-1.318c3.011-5.084,5.627-9.578,7.995-13.746
			l0.068-0.122c8.984-15.835,17.603-32.161,25.618-48.543c0.015-0.027,0.024-0.056,0.044-0.093c2.148-4.399,4.39-9.104,7.05-14.806
			l0.448-0.948c0.297-0.633,0.59-1.267,0.882-1.902c2.081-4.502,4.2-9.191,6.47-14.339c0.463-1.05,0.921-2.104,1.379-3.16
			c2.285-5.227,4.346-10.063,6.3-14.775c0.151-0.356,0.292-0.709,0.434-1.062l0.292-0.726c4.541-11.016,8.901-22.224,12.96-33.313
			c4.078-11.133,7.995-22.551,11.654-33.939c0.097-0.319,0.205-0.636,0.307-0.952l0.21-0.641c1.486-4.663,3.016-9.635,4.814-15.649
			c0.321-1.07,0.638-2.134,0.955-3.203c1.505-5.123,2.986-10.322,4.399-15.457l0.804-2.976c1.632-6.017,3.031-11.34,4.273-16.273
			l0.005-0.202L1999.374,1186.942z"/>
	</g>
	<g>
		<path style="fill:#513814;" d="M419.347,613.473l-0.02-0.137l-0.444-0.219l-0.039,0.356c-0.18,1.642-17.876,164.511-0.083,196.438
			c6.499,11.659,17.729,19.683,33.379,23.849c4.073,1.086,8.405,1.895,12.867,2.409l0.38,0.044l-0.112-0.366
			C450.781,788.323,431.049,711.164,419.347,613.473z"/>
		<path style="fill:#513814;" d="M1561.976,987.629c8.185,0,14.845-6.658,14.845-14.843s-6.66-14.843-14.845-14.843
			c-8.185,0-14.84,6.658-14.84,14.843S1553.791,987.629,1561.976,987.629z"/>
		<path style="fill:#513814;" d="M1989.381,822.157l-0.088,0.234c-93.335,247.851-321.539,343.308-496.54,379.741
			c-97.232,20.244-189.233,24.83-252.614,24.83c-3.864,0-7.63-0.017-11.279-0.048l-0.073-0.002l-0.058,0.039
			c-1.476,0.928-2.948,1.849-4.419,2.767l-0.721,0.45l0.848,0.01c5.963,0.073,11.03,0.107,15.941,0.107
			c60.852,0,154.144-4.317,252.974-24.887c111.859-23.277,208.633-62.112,287.639-115.425
			c98.826-66.684,169.954-156.319,211.41-266.414l0.088-0.233L1989.381,822.157z"/>
		<path style="fill:#513814;" d="M1466.171,1183.115c111.864-23.281,208.638-62.117,287.639-115.425
			c98.826-66.689,169.953-156.324,211.41-266.414l0.088-0.233l-3.109-1.169l-0.088,0.234
			c-93.335,247.849-321.539,343.305-496.54,379.739c-63.128,13.143-130.772,21.162-201.052,23.842l-0.073,0.003l-0.058,0.039
			c-0.916,0.621-1.837,1.225-2.753,1.829c-0.58,0.383-1.159,0.765-1.739,1.152l-0.736,0.487l0.882-0.031
			C1332.135,1204.669,1401.489,1196.576,1466.171,1183.115z"/>
		<path style="fill:#513814;" d="M1437.884,1157.312c99.766-26.37,185.183-66.046,253.875-117.924
			c85.924-64.892,145.769-149.15,177.875-250.441l0.073-0.238l-2.909-0.919l-0.078,0.237
			c-72.258,228.007-273.476,325.057-429.549,366.321c-44.126,11.668-91.308,20.694-140.224,26.828l-0.117,0.046
			c-0.58,0.411-1.16,0.826-1.739,1.242c-0.877,0.626-1.749,1.252-2.621,1.866l-0.814,0.573l0.984-0.119
			C1343.302,1178.637,1392.169,1169.395,1437.884,1157.312z"/>
	</g>
</g>
</svg>
